<svg width="15" height="16" viewBox="0 0 15 16" fill="none" xmlns="http://www.w3.org/2000/svg">
<path d="M8.54938 7.69017C9.81224 10.2168 11.0627 12.7187 12.3269 15.2479C11.6884 15.501 11.0654 15.7479 10.4296 15.9997C9.29545 13.6028 8.16885 11.2217 7.03387 8.82251C6.27368 9.35781 5.66342 10.0104 5.24364 10.831C4.5399 12.2067 4.78021 13.4705 5.71281 14.6469C5.75734 14.7033 5.80099 14.7607 5.81951 14.8683C5.4403 14.7417 5.05536 14.6297 4.68233 14.4868C3.42697 14.0049 2.32902 13.2857 1.45111 12.2583C0.371682 10.995 -0.0780783 9.51258 0.0109919 7.87007C0.0828654 6.54769 0.48765 5.30644 1.04544 4.11413C1.25004 3.67628 1.47977 3.24989 1.70862 2.7966C1.80606 3.21505 1.87176 3.60705 1.98994 3.98273C2.26905 4.87123 2.71308 5.65787 3.51956 6.17818C4.24359 6.64558 5.0342 6.73068 5.89183 6.54108C5.51174 5.78177 5.14135 5.04276 4.76214 4.28566C5.27142 4.02903 5.76616 3.7799 6.2728 3.52459C6.65422 4.1569 7.02549 4.77246 7.40426 5.40036C8.03568 5.13315 8.58466 4.75835 9.02163 4.24509C9.24122 3.9867 9.43435 3.68642 9.56266 3.37335C9.8603 2.64844 9.66761 1.96895 9.18875 1.39882C8.79543 0.930977 8.32141 0.530602 7.87606 0.0936294C8.21162 0.0649682 8.58995 0.0169056 8.96916 0.00411826C10.1187 -0.0346846 11.2188 0.16903 12.2427 0.714916C13.5444 1.40896 14.2724 2.52454 14.5929 3.93247C14.7808 4.75835 14.8954 5.5957 14.8588 6.44451C14.8028 7.73603 14.5056 8.94597 13.5871 9.9231C13.4434 10.0757 13.2679 10.1982 13.0893 10.3504C12.8274 9.69998 12.5201 9.1197 12.0937 8.60953C11.6016 8.02043 11.0217 7.55921 10.247 7.41326C9.65967 7.30214 9.09791 7.40047 8.54938 7.69017Z" fill="white"/>
</svg>
