<svg width="18" height="16" viewBox="0 0 18 16" fill="none" xmlns="http://www.w3.org/2000/svg">
<path d="M8.25588 12.4057C7.0941 11.9104 5.9612 11.4276 4.8283 10.9438C4.22004 10.6839 3.61626 10.4146 3.00302 10.1673C2.83378 10.0991 2.78798 10.0115 2.78848 9.83874C2.79445 8.10504 2.78898 6.37134 2.79644 4.63814C2.79744 4.45596 2.74368 4.35541 2.58191 4.27129C2.26832 4.10852 1.96767 3.92136 1.63268 3.72773C1.62671 3.84122 1.61924 3.92037 1.61924 3.99951C1.61874 6.36337 1.62123 8.72773 1.61426 11.0916C1.61377 11.2802 1.67449 11.3594 1.84572 11.4306C4.05229 12.3469 6.25389 13.2743 8.46095 14.1897C8.57444 14.2364 8.7397 14.2384 8.85319 14.1926C11.1374 13.2718 13.4176 12.34 15.6994 11.4136C15.8218 11.3639 15.9045 11.3241 15.904 11.1593C15.8975 8.73719 15.8995 6.31509 15.899 3.89299C15.899 3.85217 15.8925 3.81136 15.8855 3.72773C15.4415 3.94725 15.0135 4.15183 14.5963 4.37532C14.5456 4.4027 14.5306 4.53212 14.5306 4.61474C14.5272 6.33998 14.5237 8.06522 14.5336 9.79045C14.5351 10.0065 14.4709 10.104 14.2708 10.1882C12.6013 10.8905 10.9378 11.6058 9.2723 12.3176C9.21257 12.343 9.15184 12.3674 9.06324 12.4042C9.05827 12.2982 9.0508 12.2126 9.0508 12.1264C9.0503 9.11549 9.05279 6.10454 9.04483 3.09359C9.04433 2.88801 9.11501 2.78846 9.28873 2.69936C10.9453 1.84919 12.5973 0.99105 14.2514 0.135898C14.3305 0.0950817 14.4122 0.0577497 14.5272 0.00200052V2.44053C15.454 1.91091 16.3395 1.40519 17.2658 0.876067C17.2658 1.00897 17.2658 1.09608 17.2658 1.18368C17.2658 4.89996 17.2638 8.61574 17.2713 12.332C17.2713 12.5505 17.2051 12.6416 17.0025 12.7218C14.2887 13.7924 11.5789 14.8726 8.87011 15.9557C8.72078 16.0154 8.59933 16.0149 8.45 15.9557C5.72526 14.8671 2.99854 13.784 0.271806 12.7009C0.144877 12.6496 0.0498047 12.6093 0.0498047 12.4301C0.0562756 8.62321 0.0547823 4.81584 0.05528 1.00847C0.05528 0.983583 0.0597599 0.959193 0.0672263 0.885027C0.974145 1.4022 1.86364 1.90942 2.783 2.43406V-0.000488281C2.88455 0.0467989 2.95672 0.0766645 3.02541 0.112503C4.70784 0.984081 6.39027 1.85665 8.0737 2.72674C8.18768 2.78597 8.27429 2.83177 8.2738 2.99453C8.26782 6.08861 8.26932 9.18219 8.26832 12.2763C8.26832 12.3091 8.26185 12.3415 8.25488 12.4052L8.25588 12.4057Z" fill="white"/>
</svg>
